<?xml version="1.0" encoding="UTF-8"?>
<svg version="1.1" xmlns="http://www.w3.org/2000/svg" width="500" height="500">
<path d="M0 0 C165 0 330 0 500 0 C500 165 500 330 500 500 C335 500 170 500 0 500 C0 335 0 170 0 0 Z " fill="#000000" transform="translate(0,0)"/>
<path d="M0 0 C1.96266297 1.02506701 3.89859776 2.1025118 5.80859375 3.22265625 C6.88560547 3.84333984 7.96261719 4.46402344 9.07226562 5.10351562 C11.31454078 6.40879826 13.55413652 7.71869467 15.79101562 9.03320312 C17.4084668 9.96229492 17.4084668 9.96229492 19.05859375 10.91015625 C20.03111084 11.47871338 21.00362793 12.04727051 22.00561523 12.63305664 C27.42460605 15.1068381 32.57966675 15.14685049 38.4296875 14.66015625 C39.63882813 14.56669922 40.84796875 14.47324219 42.09375 14.37695312 C43.3415625 14.27318359 44.589375 14.16941406 45.875 14.0625 C49.60139297 13.75461572 53.31595069 13.46903902 57.05078125 13.28588867 C59.91401635 13.07861566 62.41511235 12.7462517 65.19921875 12.19262695 C69.72178668 11.47380308 73.72267007 11.11757196 78 13 C84.60921844 18.63941905 88.82301295 26.71122715 93.25 34.0625 C94.521779 36.07839122 95.79908089 38.09080933 97.08203125 40.09960938 C99.43652974 43.79869597 101.75492564 47.51575959 104.04003906 51.25805664 C109.37716893 60.18531411 109.37716893 60.18531411 117.5 66.46484375 C118.55316406 67.03783203 119.60632813 67.61082031 120.69140625 68.20117188 C121.78324219 68.77416016 122.87507813 69.34714844 124 69.9375 C127.23567788 71.67328588 130.46296368 73.41660318 133.66674805 75.21069336 C136.01512084 76.47131185 138.2498082 77.55250204 140.68676758 78.58813477 C144.47148723 80.40970034 147.12766259 81.92338363 150 85 C151.49931433 91.06206143 151.1155114 96.87312541 150.6875 103.0625 C149.86637975 115.97154484 150.65123316 123.80092813 158.82348633 134.18920898 C161 137 161 137 161 139 C156.01272656 136.97525223 154.63247525 133.53370738 152 129 C151.67 132.3 151.34 135.6 151 139 C150.34 139 149.68 139 149 139 C149.08950928 138.09515869 149.17901855 137.19031738 149.27124023 136.25805664 C149.63892212 121.8591307 142.20234061 112.74518291 134.0625 101.4375 C132.75140561 99.5679615 131.44343904 97.69622543 130.13867188 95.82226562 C127.61003107 92.19508979 125.05746815 88.58667963 122.48876953 84.98779297 C120.29097765 81.88692922 118.18360647 78.76087456 116.17919922 75.53173828 C111.43215451 67.8907508 107.32802393 62.88662013 99 59 C97.12635653 57.95945752 95.25940504 56.90679671 93.3984375 55.84375 C91.39114251 54.72823494 89.38330776 53.6136907 87.375 52.5 C79.80315593 48.28409634 72.2669826 44.01885176 64.79541016 39.62744141 C61.82401857 37.88176709 58.84448517 36.15072791 55.86328125 34.421875 C51.93619792 32.14352727 48.04604538 29.81375009 44.16796875 27.453125 C42.27949912 26.34229808 40.39020896 25.23286464 38.5 24.125 C37.67733643 23.60663574 36.85467285 23.08827148 36.00708008 22.55419922 C28.19781595 18.07086072 20.69411779 18.49209399 12 19 C10.11117596 19.09526236 8.22234066 19.1903017 6.33349609 19.28515625 C1.10965057 19.56231566 -4.11028561 19.8858592 -9.33032227 20.22680664 C-12.5876984 20.43914259 -15.84552854 20.64297851 -19.10351562 20.84570312 C-21.19534394 20.97867302 -23.28714204 21.11211923 -25.37890625 21.24609375 C-26.82433556 21.33678383 -26.82433556 21.33678383 -28.29896545 21.42930603 C-39.23490229 22.07126676 -39.23490229 22.07126676 -49.125 26.5 C-50.43729723 27.32012121 -51.75125875 28.1375823 -53.06640625 28.953125 C-54.20360107 29.66178711 -54.20360107 29.66178711 -55.36376953 30.38476562 C-60.25426907 33.38120431 -65.21764063 36.25519366 -70.17114258 39.14581299 C-73.33362482 40.9920911 -76.49280715 42.84399963 -79.65234375 44.6953125 C-80.27499115 45.06002655 -80.89763855 45.4247406 -81.53915405 45.80050659 C-87.40452298 49.23620191 -93.26778566 52.67541524 -99.125 56.125 C-99.9694165 56.62032227 -100.81383301 57.11564453 -101.68383789 57.62597656 C-103.25997158 58.55553562 -104.82904277 59.49723083 -106.38896179 60.45375061 C-109 62 -109 62 -111.59124756 63.29069519 C-120.63986752 68.17640728 -124.04448028 75.08868324 -128.2578125 83.98046875 C-128.97703217 85.44186633 -129.69883133 86.90199696 -130.42306519 88.36091614 C-132.3074795 92.17530493 -134.15452139 96.00664616 -135.99456787 99.84259033 C-137.50536887 102.97651742 -139.04181623 106.09751221 -140.57980537 109.2181654 C-143.75698094 115.66524833 -146.91760627 122.12059632 -150.03173828 128.59838867 C-150.58258087 129.7408757 -151.13342346 130.88336273 -151.70095825 132.06047058 C-152.74009046 134.41186513 -153.50683987 136.49110469 -154 139 C-155.32 138.67 -156.64 138.34 -158 138 C-157.505 137.01 -157.505 137.01 -157 136 C-156.92692696 134.45829589 -156.91638465 132.91340763 -156.9375 131.37011719 C-156.946604 130.40861755 -156.95570801 129.44711792 -156.96508789 128.45648193 C-156.98236938 126.8924765 -156.98236938 126.8924765 -157 125.296875 C-157.00115855 123.09765617 -156.99977612 120.8984348 -156.99609375 118.69921875 C-156.99167475 115.22441179 -156.9999661 111.75229579 -157.05126953 108.27783203 C-157.09656081 104.92866089 -157.08460233 101.5836944 -157.0625 98.234375 C-157.09021484 97.19980164 -157.11792969 96.16522827 -157.14648438 95.0993042 C-157.03008575 88.06257062 -157.03008575 88.06257062 -154.12991333 85.07093811 C-151.81870403 83.49042389 -149.52252928 82.21068049 -147 81 C-145.98405762 80.47269287 -144.96811523 79.94538574 -143.92138672 79.40209961 C-143.01662598 78.98968018 -142.11186523 78.57726074 -141.1796875 78.15234375 C-124.27707428 69.7596066 -117.49711053 60.92630352 -110.0859375 44.18359375 C-109.55863037 43.00869385 -109.03132324 41.83379395 -108.48803711 40.62329102 C-107.4280017 38.04216131 -106.61877303 35.72160297 -105.88891602 33.06225586 C-104.59692765 28.94590804 -103.14517541 26.07740554 -100 23 C-92.48951492 20.27882894 -84.06557734 20.75747338 -76.1875 20.6875 C-73.99133717 20.62156814 -71.79535321 20.54936201 -69.59960938 20.47070312 C-65.54284053 20.33006735 -61.48905045 20.23080611 -57.43041992 20.16674805 C-48.957278 19.97022022 -41.92535165 19.72404926 -34.625 15.1875 C-33.96580566 14.80166748 -33.30661133 14.41583496 -32.62744141 14.01831055 C-28.61005745 11.65014398 -24.67166879 9.16245438 -20.734375 6.6640625 C-19.84411621 6.10823486 -18.95385742 5.55240723 -18.03662109 4.97973633 C-16.28775523 3.8842488 -14.55051954 2.76992898 -12.82666016 1.63549805 C-12.02534668 1.1331665 -11.2240332 0.63083496 -10.3984375 0.11328125 C-9.69380371 -0.34264404 -8.98916992 -0.79856934 -8.26318359 -1.26831055 C-4.94051094 -2.34253384 -3.15922995 -1.3641959 0 0 Z " fill="#C4AE52" transform="translate(252,56)"/>
<path d="M0 0 C0.66 0 1.32 0 2 0 C2 2.64 2 5.28 2 8 C2.78375 8.21398437 3.5675 8.42796875 4.375 8.6484375 C9.23862038 10.4618132 13.52780049 13.00967865 18 15.625 C19.86847924 16.70574705 21.73696886 17.78647615 23.60546875 18.8671875 C24.5186084 19.39795898 25.43174805 19.92873047 26.37255859 20.47558594 C30.00884134 22.58531921 33.65975731 24.66894378 37.3125 26.75 C39.20833333 27.83333333 41.10416667 28.91666667 43 30 C41.40709209 26.57853494 39.42308928 23.54960963 37.3046875 20.4296875 C36.23154297 18.83833984 36.23154297 18.83833984 35.13671875 17.21484375 C34.00158303 15.53705297 32.86499443 13.86028293 31.72607422 12.18505859 C30.62328722 10.56097133 29.52639254 8.93288793 28.4296875 7.3046875 C27.77210449 6.33515137 27.11452148 5.36561523 26.43701172 4.36669922 C25 2 25 2 25 0 C29.12769061 1.37589687 30.06346885 4.14880197 32.0859375 7.75390625 C43.82483371 27.71501004 54.31311614 38.97807815 75.44970703 48.36328125 C81.12317279 50.97880281 86.47758415 54.11355098 91.875 57.25 C94.5065461 58.74536834 97.13985497 60.23632776 99.78417969 61.70898438 C102 63 102 63 103.72363281 64.24414062 C111.95521706 69.99366308 125.26808736 66.92587457 134.80078125 66.37890625 C136.54260933 66.28258156 136.54260933 66.28258156 138.31962585 66.18431091 C140.75069779 66.04901447 143.18167234 65.91195717 145.61254883 65.77319336 C149.32022182 65.56206028 153.02822855 65.35778566 156.73632812 65.15429688 C159.11200194 65.02123929 161.48765382 64.88778943 163.86328125 64.75390625 C164.96239334 64.6934462 166.06150543 64.63298615 167.19392395 64.57069397 C171.63258693 64.31431804 176.03598673 64.03743225 180.44360352 63.4440918 C183.42761451 63.07147451 186.0531379 62.96458409 189.0390625 63.140625 C204.29530272 63.58957949 213.39780978 59.44996236 225.86425781 51.04736328 C231.29556686 47.50119716 236.93219131 44.30553421 242.54901123 41.06445312 C245.65356764 39.27116267 248.74981335 37.4638784 251.84375 35.65234375 C252.88724609 35.04382568 253.93074219 34.43530762 255.00585938 33.80834961 C255.99392578 33.21159424 256.98199219 32.61483887 258 32 C259.05743408 31.37125977 260.11486816 30.74251953 261.2043457 30.09472656 C264.22934401 27.82815722 265.32671076 26.23231569 266.88671875 22.83203125 C267.35013672 21.85685547 267.81355469 20.88167969 268.29101562 19.87695312 C268.75185547 18.86568359 269.21269531 17.85441406 269.6875 16.8125 C270.61982067 14.79395579 271.56080633 12.77938401 272.51171875 10.76953125 C272.91865967 9.87854736 273.32560059 8.98756348 273.74487305 8.06958008 C275 6 275 6 278 5 C276.55676531 9.73789165 274.62773267 13.98858151 272.375 18.375 C271.88773437 19.33599609 271.88773437 19.33599609 271.390625 20.31640625 C270.59742593 21.87947501 269.79922969 23.44000622 269 25 C270.2375 24.29037109 270.2375 24.29037109 271.5 23.56640625 C278.84054426 19.36212969 286.19742509 15.18879977 293.58007812 11.05883789 C294.21494141 10.70297607 294.84980469 10.34711426 295.50390625 9.98046875 C296.10477051 9.6457959 296.70563477 9.31112305 297.32470703 8.96630859 C298.84200125 8.09113364 300.31330358 7.13739413 301.77734375 6.17578125 C302.51082031 5.78777344 303.24429687 5.39976562 304 5 C304.99 5.33 305.98 5.66 307 6 C299.84094192 10.96779408 292.38303781 15.31858642 284.8125 19.625 C282.52583971 20.92709491 280.24108157 22.2323794 277.95703125 23.5390625 C276.45619995 24.39298584 276.45619995 24.39298584 274.92504883 25.26416016 C273.95978271 25.8369873 272.9945166 26.40981445 272 27 C270.96093506 27.59917236 269.92187012 28.19834473 268.85131836 28.81567383 C265.48744735 31.39265421 264.2441492 33.6034655 262.421875 37.41015625 C262.1243634 38.0188707 261.82685181 38.62758514 261.52032471 39.25474548 C260.58137855 41.18361773 259.66520775 43.12226923 258.75 45.0625 C257.81566735 47.00364832 256.87681539 48.94255053 255.93682861 50.88096619 C255.08943024 52.63459148 254.25291703 54.39346444 253.41699219 56.15258789 C252 59 252 59 250 62 C246.92288006 62.36987276 244.01322006 62.5562413 240.92578125 62.6328125 C239.04094432 62.71717153 237.15617999 62.80316548 235.27148438 62.890625 C232.3121551 63.013231 229.3541064 63.12387259 226.39331055 63.20410156 C213.39993684 63.58642117 204.3590825 65.09054606 193.76156616 72.76550293 C190.77127376 74.86108542 187.60216231 76.64063961 184.4375 78.45703125 C183.1959839 79.18316754 181.95509432 79.91037613 180.71484375 80.63867188 C179.79807861 81.17512329 179.79807861 81.17512329 178.86279297 81.72241211 C176.97179587 82.82900478 175.08155398 83.93687915 173.19140625 85.04492188 C169.79642704 87.03368151 166.401281 89.02202508 163 91 C162.41089844 91.38296234 161.82179688 91.76592468 161.21484375 92.16049194 C158.5230398 93.85581427 156.63426963 95.01711985 153.40405273 94.92993164 C150.62810345 93.8561436 148.12370228 92.59402992 145.53515625 91.12109375 C144.48650391 90.52876953 143.43785156 89.93644531 142.35742188 89.32617188 C141.27009766 88.70291016 140.18277344 88.07964844 139.0625 87.4375 C137.4837207 86.54321289 137.4837207 86.54321289 135.87304688 85.63085938 C134.81279297 85.02951172 133.75253906 84.42816406 132.66015625 83.80859375 C131.56550049 83.19975342 130.47084473 82.59091309 129.34301758 81.96362305 C126 80 126 80 122.7409668 77.68676758 C114.03760697 71.64975776 108.10563643 71.79832016 97.81640625 73.17895508 C77.219844 75.89589677 77.219844 75.89589677 69.96539307 70.48144531 C63.8320337 64.33865341 59.79549063 56.61874796 55.55444336 49.12841797 C54.59536151 47.43616769 53.63453067 45.74490733 52.671875 44.0546875 C52.20624649 43.23459198 51.74061798 42.41449646 51.26087952 41.56954956 C45.24822366 31.42196643 36.71270809 27.47135533 25.93847656 23.24365234 C20.74535124 21.04576431 15.9705145 18.11725 11.125 15.25 C9.39974297 14.25294599 7.67329983 13.25793962 5.9453125 12.265625 C5.22875488 11.85086914 4.51219727 11.43611328 3.77392578 11.00878906 C2.53514123 10.30432199 1.27463282 9.63731641 0 9 C0 6.03 0 3.06 0 0 Z " fill="#C5AF52" transform="translate(98,311)"/>
<path d="M0 0 C4.31915153 0.37021299 6.69883274 2.2227936 10.11157227 4.74658203 C21.65819372 12.76118392 33.1560718 11.37636643 46.43354797 10.00131226 C48.54065282 9.78850738 50.64904779 9.60968881 52.75927734 9.4309082 C55.66345465 9.17702838 58.44992399 8.72556002 61.30712891 8.15307617 C65.80268137 7.44012301 69.76333987 7.09033881 74 9 C80.59923277 14.66139052 84.81870677 22.70407648 89.25 30.0625 C90.521779 32.07839122 91.79908089 34.09080933 93.08203125 36.09960938 C95.43652974 39.79869597 97.75492564 43.51575959 100.04003906 47.25805664 C105.37716893 56.18531411 105.37716893 56.18531411 113.5 62.46484375 C114.55316406 63.03783203 115.60632813 63.61082031 116.69140625 64.20117188 C117.78324219 64.77416016 118.87507813 65.34714844 120 65.9375 C123.23567788 67.67328588 126.46296368 69.41660318 129.66674805 71.21069336 C132.01512084 72.47131185 134.2498082 73.55250204 136.68676758 74.58813477 C140.47148723 76.40970034 143.12766259 77.92338363 146 81 C147.49931433 87.06206143 147.1155114 92.87312541 146.6875 99.0625 C145.86637975 111.97154484 146.65123316 119.80092813 154.82348633 130.18920898 C157 133 157 133 157 135 C152.01272656 132.97525223 150.63247525 129.53370738 148 125 C147.67 128.3 147.34 131.6 147 135 C146.34 135 145.68 135 145 135 C145.13426392 133.64273804 145.13426392 133.64273804 145.27124023 132.25805664 C145.63892212 117.8591307 138.20234061 108.74518291 130.0625 97.4375 C128.75140561 95.5679615 127.44343904 93.69622543 126.13867188 91.82226562 C123.61003107 88.19508979 121.05746815 84.58667963 118.48876953 80.98779297 C116.29097765 77.88692922 114.18360647 74.76087456 112.17919922 71.53173828 C107.43215451 63.8907508 103.32802393 58.88662013 95 55 C93.12635653 53.95945752 91.25940504 52.90679671 89.3984375 51.84375 C87.39114251 50.72823494 85.38330776 49.6136907 83.375 48.5 C75.80362844 44.28435943 68.2674129 40.02023039 60.79711914 35.62768555 C57.81752454 33.87795061 54.8273122 32.14746836 51.8359375 30.41796875 C47.97783775 28.1816026 44.18502634 25.86822864 40.4140625 23.48828125 C27.24823954 15.4241417 16.4183533 13.13701652 1 14 C1 13.67 1 13.34 1 13 C6.28 12.34 11.56 11.68 17 11 C15.7728125 10.28972656 14.545625 9.57945313 13.28125 8.84765625 C11.68738674 7.91946529 10.09364286 6.99106933 8.5 6.0625 C7.68917969 5.59392578 6.87835938 5.12535156 6.04296875 4.64257812 C5.27597656 4.19462891 4.50898438 3.74667969 3.71875 3.28515625 C3.00654297 2.87144775 2.29433594 2.45773926 1.56054688 2.03149414 C1.04556641 1.69110107 0.53058594 1.35070801 0 1 C0 0.67 0 0.34 0 0 Z " fill="#C3AD51" transform="translate(256,60)"/>
<path d="M0 0 C3.83326795 -0.05859888 7.66641888 -0.09379643 11.5 -0.125 C12.57765625 -0.14175781 13.6553125 -0.15851563 14.765625 -0.17578125 C23.61808706 -0.22975968 30.81411686 0.28395659 38 6 C43.1540128 11.30127031 45.15041591 17.13851723 45.375 24.4375 C45.04385232 34.02753671 42.00480074 40.42816708 35 47 C30.03254982 50.58118502 25.96328728 51.12727102 19.921875 51.09765625 C18.18164062 51.09282227 18.18164062 51.09282227 16.40625 51.08789062 C15.1996875 51.07951172 13.993125 51.07113281 12.75 51.0625 C11.52796875 51.05798828 10.3059375 51.05347656 9.046875 51.04882812 C6.03120054 51.03704815 3.01562502 51.02059853 0 51 C0 50.34 0 49.68 0 49 C1.65 48.34 3.3 47.68 5 47 C5 32.81 5 18.62 5 4 C2.525 3.01 2.525 3.01 0 2 C0 1.34 0 0.68 0 0 Z " fill="#050502" transform="translate(294,215)"/>
<path d="M0 0 C-2.71756939 2.91145856 -5.30118635 4.93675621 -8.7890625 6.84765625 C-9.72258545 7.36569824 -10.6561084 7.88374023 -11.61791992 8.41748047 C-12.61025635 8.96033691 -13.60259277 9.50319336 -14.625 10.0625 C-23.06331701 14.72976684 -31.34987206 19.5448966 -39.41455078 24.83618164 C-44.48800899 28.05880488 -44.48800899 28.05880488 -46.89819336 27.78198242 C-49.45121917 26.83212278 -51.7561733 25.64489124 -54.1484375 24.33984375 C-55.14810547 23.79674561 -56.14777344 23.25364746 -57.17773438 22.6940918 C-58.23283203 22.1144165 -59.28792969 21.53474121 -60.375 20.9375 C-61.44814453 20.35202393 -62.52128906 19.76654785 -63.62695312 19.16333008 C-71.47331562 14.8706509 -79.27245818 10.50319779 -87 6 C-87 5.67 -87 5.34 -87 5 C-50.30880978 2.0901297 -50.30880978 2.0901297 -32.546875 0.94134521 C-30.63390332 0.81713621 -28.72124033 0.6882006 -26.80859375 0.55908203 C-17.86066336 -0.00257937 -8.96037208 -0.08565761 0 0 Z " fill="#040401" transform="translate(299,376)"/>
<path d="M0 0 C3.92176217 -0.70083925 5.80069637 -0.75393219 9.5065918 0.79638672 C15.65886917 6.72055958 19.88169344 14.45213667 24.3190918 21.67138672 C25.60471194 23.68052234 26.89438702 25.68706938 28.18823242 27.69091797 C30.5308783 31.3503187 32.86133524 35.01581511 35.14257812 38.71386719 C35.82988762 39.82639359 35.82988762 39.82639359 36.53108215 40.96139526 C37.5065918 42.79638672 37.5065918 42.79638672 37.5065918 44.79638672 C31.86669375 43.22924219 27.20211243 40.48464576 22.1940918 37.54638672 C20.31059449 36.45547653 18.42645239 35.365679 16.54174805 34.27685547 C15.55577637 33.70628418 14.56980469 33.13571289 13.55395508 32.54785156 C8.43787207 29.60739495 3.28448529 26.73419165 -1.8684082 23.85888672 C-13.76625119 17.21162165 -25.63481687 10.51338463 -37.4934082 3.79638672 C-37.4934082 3.46638672 -37.4934082 3.13638672 -37.4934082 2.79638672 C-32.88962792 2.5064091 -28.28555335 2.22184364 -23.68115234 1.94189453 C-22.12084332 1.84630977 -20.56061797 1.74934733 -19.00048828 1.65087891 C-18.24856201 1.60350586 -17.49663574 1.55613281 -16.72192383 1.50732422 C-15.60040169 1.43591721 -15.60040169 1.43591721 -14.45622253 1.36306763 C-12.94766585 1.27667779 -11.43816136 1.20553836 -9.92817688 1.14938354 C-6.46341284 1.01908278 -3.39985315 0.77505912 0 0 Z " fill="#030301" transform="translate(319.493408203125,70.20361328125)"/>
<path d="M0 0 C3.83470385 -0.09281279 7.65703561 -0.0183071 11.49169922 0.05712891 C8.31332749 3.60710131 4.76716942 5.76936744 0.61669922 7.99462891 C-0.83111286 8.79063179 -2.27765978 9.58893879 -3.72314453 10.38916016 C-4.49770996 10.81793457 -5.27227539 11.24670898 -6.0703125 11.68847656 C-10.40126696 14.1198135 -14.67269927 16.65090175 -18.94580078 19.18212891 C-19.85281738 19.71781494 -20.75983398 20.25350098 -21.69433594 20.80541992 C-26.36342535 23.57080855 -31.01682793 26.3596131 -35.64784241 29.18838501 C-37.38524858 30.24951472 -39.12442469 31.3076877 -40.86401367 32.36523438 C-43.10051169 33.72711255 -45.33289417 35.09577592 -47.56079102 36.47167969 C-49.07394897 37.39182861 -49.07394897 37.39182861 -50.61767578 38.33056641 C-51.51454102 38.88147949 -52.41140625 39.43239258 -53.33544922 40 C-54.41101074 40.52327881 -54.41101074 40.52327881 -55.50830078 41.05712891 C-56.16830078 40.72712891 -56.82830078 40.39712891 -57.50830078 40.05712891 C-44.75158531 5.71417822 -44.75158531 5.71417822 -35.10058594 0.06103516 C-27.74285218 -1.94205431 -20.534386 -1.33328222 -13.04296875 -0.35888672 C-8.66163045 0.15677846 -4.40281843 0.10745617 0 0 Z " fill="#040301" transform="translate(191.50830078125,78.94287109375)"/>
<path d="M0 0 C3.83326795 -0.05859888 7.66641888 -0.09379643 11.5 -0.125 C12.57765625 -0.14175781 13.6553125 -0.15851563 14.765625 -0.17578125 C23.61808706 -0.22975968 30.81411686 0.28395659 38 6 C43.1540128 11.30127031 45.15041591 17.13851723 45.375 24.4375 C45.04385232 34.02753671 42.00480074 40.42816708 35 47 C30.03254982 50.58118502 25.96328728 51.12727102 19.921875 51.09765625 C18.18164062 51.09282227 18.18164062 51.09282227 16.40625 51.08789062 C15.1996875 51.07951172 13.993125 51.07113281 12.75 51.0625 C11.52796875 51.05798828 10.3059375 51.05347656 9.046875 51.04882812 C6.03120054 51.03704815 3.01562502 51.02059853 0 51 C0 50.34 0 49.68 0 49 C1.65 48.34 3.3 47.68 5 47 C5 32.81 5 18.62 5 4 C2.525 3.01 2.525 3.01 0 2 C0 1.34 0 0.68 0 0 Z M12 4 C11.69520129 5.92371866 11.69520129 5.92371866 11.74121094 8.14257812 C11.73490662 8.99686401 11.72860229 9.8511499 11.72210693 10.73132324 C11.7261554 11.65529907 11.73020386 12.5792749 11.734375 13.53125 C11.73246155 14.47810669 11.7305481 15.42496338 11.72857666 16.4005127 C11.72721427 18.40454372 11.73091444 20.40858354 11.73925781 22.41259766 C11.74995653 25.48750553 11.73936428 28.56182914 11.7265625 31.63671875 C11.72788409 33.58073046 11.73044646 35.52474181 11.734375 37.46875 C11.73032654 38.39272583 11.72627808 39.31670166 11.72210693 40.26867676 C11.72841125 41.12296265 11.73471558 41.97724854 11.74121094 42.85742188 C11.74280212 43.61083862 11.74439331 44.36425537 11.74603271 45.14050293 C11.84261318 47.24589007 11.84261318 47.24589007 14 49 C20.27002495 49.7227424 26.83877877 49.99994645 32 46 C36.67830435 39.59571928 37.20597199 33.93484849 37.25 26.3125 C37.270625 25.43916016 37.29125 24.56582031 37.3125 23.66601562 C37.34950524 17.4722634 36.8938298 11.35566698 32.65380859 6.43896484 C27.4648389 1.76706911 22.58996287 1.89157915 15.98828125 1.76953125 C13.76762091 1.81838864 13.76762091 1.81838864 12 4 Z " fill="#D3BC61" transform="translate(294,215)"/>
<path d="M0 0 C0.66 0 1.32 0 2 0 C2.20853607 0.54235291 2.41707214 1.08470581 2.63192749 1.64349365 C4.80332754 7.28962141 6.9775143 12.93467027 9.15332031 18.57910156 C9.96490814 20.6855969 10.7757857 22.79236602 11.5859375 24.89941406 C12.75073486 27.92845818 13.91808527 30.9565076 15.0859375 33.984375 C15.44746918 34.92617615 15.80900085 35.86797729 16.18148804 36.83831787 C16.52168976 37.71892883 16.86189148 38.59953979 17.21240234 39.50683594 C17.50996429 40.27960876 17.80752625 41.05238159 18.11410522 41.84857178 C19.3990551 45.00257684 19.3990551 45.00257684 21 48 C21.99 48.33 22.98 48.66 24 49 C24 49.66 24 50.32 24 51 C18.39 51 12.78 51 7 51 C7 50.34 7 49.68 7 49 C8.98 48.505 8.98 48.505 11 48 C10.27034498 42.45462182 8.65573264 37.32713981 7 32 C1.06 32 -4.88 32 -11 32 C-11.515625 33.711875 -12.03125 35.42375 -12.5625 37.1875 C-12.85253906 38.15042969 -13.14257812 39.11335938 -13.44140625 40.10546875 C-14.02461026 43.12752588 -13.81178385 45.05929955 -13 48 C-11.68 48.33 -10.36 48.66 -9 49 C-9 49.66 -9 50.32 -9 51 C-13.29 51 -17.58 51 -22 51 C-22 50.34 -22 49.68 -22 49 C-21.41879395 48.48888672 -20.83758789 47.97777344 -20.23876953 47.45117188 C-17.06829691 43.97990197 -15.81218199 40.14535729 -14.1796875 35.78125 C-13.83495392 34.88635864 -13.49022034 33.99146729 -13.13504028 33.06945801 C-12.03828684 30.2167113 -10.95620438 27.35867167 -9.875 24.5 C-8.78367627 21.6425499 -7.68937863 18.78626203 -6.59353638 15.93054199 C-5.91354827 14.15551355 -5.23672499 12.37926868 -4.56344604 10.60168457 C-4.25617584 9.79404663 -3.94890564 8.98640869 -3.63232422 8.15429688 C-3.36459198 7.44688354 -3.09685974 6.73947021 -2.8210144 6.01062012 C-1.97889296 3.94830999 -1.0211119 1.97899641 0 0 Z " fill="#E3CA69" transform="translate(179,215)"/>
<path d="M0 0 C-1.39283534 3.61192328 -2.9713594 7.06434795 -4.70556641 10.5246582 C-5.24597565 11.60540115 -5.78638489 12.6861441 -6.34317017 13.79963684 C-7.21357437 15.53270332 -7.21357437 15.53270332 -8.1015625 17.30078125 C-8.70422571 18.50424078 -9.30671128 19.70778929 -9.9090271 20.91142273 C-11.48874858 24.06706192 -13.07086958 27.22149204 -14.65350342 30.37567139 C-16.27046102 33.59932632 -17.88513241 36.82412586 -19.5 40.04882812 C-22.66443759 46.36700375 -25.83141305 52.68390413 -29 59 C-29.33 59 -29.66 59 -30 59 C-30.32281905 53.16557097 -30.5578377 47.33638488 -30.71411133 41.49511719 C-30.77926353 39.51177429 -30.86782452 37.52905072 -30.98071289 35.54785156 C-31.70912968 22.4297574 -31.70912968 22.4297574 -30 17 C-26.23879717 12.83030799 -22.15710332 11.04542396 -17 9 C-15.4848569 8.11958515 -13.9867756 7.20811425 -12.51953125 6.25 C-11.28421941 5.49939857 -10.04855958 4.74936945 -8.8125 4 C-8.17248047 3.60683594 -7.53246094 3.21367187 -6.87304688 2.80859375 C-2.22957045 0 -2.22957045 0 0 0 Z " fill="#020201" transform="translate(128,127)"/>
<path d="M0 0 C1.94293425 0.77316765 3.85808085 1.28881891 5.89453125 1.75390625 C6.22453125 0.76390625 6.55453125 -0.22609375 6.89453125 -1.24609375 C7.55453125 -1.24609375 8.21453125 -1.24609375 8.89453125 -1.24609375 C8.89453125 4.36390625 8.89453125 9.97390625 8.89453125 15.75390625 C7.90453125 15.42390625 6.91453125 15.09390625 5.89453125 14.75390625 C5.19921875 13.01171875 5.19921875 13.01171875 4.76953125 10.87890625 C4.25034833 8.41051025 3.69620569 6.15892958 2.89453125 3.75390625 C0.5182778 2.56999402 0.5182778 2.56999402 -2.10546875 1.75390625 C-3.09546875 1.42390625 -4.08546875 1.09390625 -5.10546875 0.75390625 C-9.60071279 0.24040459 -13.01841688 0.11585407 -16.98046875 2.44140625 C-23.94732333 10.02298329 -24.6681652 18.78365979 -24.41796875 28.72265625 C-24.02961579 35.5835585 -22.33444129 41.41620334 -17.54296875 46.44140625 C-11.42654517 48.77676798 -5.38350669 48.32341574 0.89453125 46.75390625 C0.89453125 41.47390625 0.89453125 36.19390625 0.89453125 30.75390625 C-2.57046875 30.25890625 -2.57046875 30.25890625 -6.10546875 29.75390625 C-6.10546875 29.09390625 -6.10546875 28.43390625 -6.10546875 27.75390625 C-0.16546875 27.75390625 5.77453125 27.75390625 11.89453125 27.75390625 C11.89453125 28.41390625 11.89453125 29.07390625 11.89453125 29.75390625 C10.90453125 29.75390625 9.91453125 29.75390625 8.89453125 29.75390625 C8.56453125 36.35390625 8.23453125 42.95390625 7.89453125 49.75390625 C7.23453125 48.76390625 6.57453125 47.77390625 5.89453125 46.75390625 C2.40650076 48.10282525 2.40650076 48.10282525 -0.91796875 49.80078125 C-5.90768308 51.97487107 -12.35064575 51.58801796 -17.4921875 50.03125 C-24.09599864 46.92431409 -28.60508805 42.30381506 -31.375 35.54296875 C-33.50526748 27.40922018 -33.40909473 18.17237453 -29.359375 10.6796875 C-22.26013844 -0.22350136 -12.72229621 -5.36357498 0 0 Z " fill="#DFC767" transform="translate(238.10546875,216.24609375)"/>
<path d="M0 0 C3.89376228 1.46150662 7.45562866 3.26158085 11.09375 5.2734375 C11.67425613 5.59365875 12.25476227 5.91388 12.8528595 6.24380493 C14.73696189 7.28445772 16.61856107 8.32954067 18.5 9.375 C19.79837443 10.09383452 21.09679601 10.81258389 22.39526367 11.53125 C33.32076792 17.58718973 44.18311323 23.7520827 55 30 C55 30.33 55 30.66 55 31 C54.33210449 31.04898437 53.66420898 31.09796875 52.97607422 31.1484375 C48.087331 31.54452216 43.41639934 32.09107714 38.6328125 33.1875 C32.34438858 34.2875076 26.8914605 34.83579749 21 32 C11.88141354 23.96363832 5.61113296 11.62529958 0 1 C0 0.67 0 0.34 0 0 Z " fill="#060602" transform="translate(150,349)"/>
<path d="M0 0 C3.62387102 1.36859176 6.93833684 2.99181604 10.30859375 4.8984375 C11.30310547 5.46046875 12.29761719 6.0225 13.32226562 6.6015625 C14.35029297 7.18679687 15.37832031 7.77203125 16.4375 8.375 C17.46166016 8.9525 18.48582031 9.53 19.54101562 10.125 C25.23651553 13.35429315 25.23651553 13.35429315 28 15 C29.09014404 15.57282715 30.18028809 16.1456543 31.3034668 16.73583984 C34 19 34 19 34.68115234 22.39160156 C34.6802087 23.72498682 34.64665898 25.05862273 34.5859375 26.390625 C34.57744781 27.09523865 34.56895813 27.79985229 34.56021118 28.52581787 C34.52671308 30.76879081 34.45146048 33.00812099 34.375 35.25 C34.34489485 36.77338543 34.31751997 38.29682744 34.29296875 39.8203125 C34.22694019 43.54805187 34.12345129 47.27367025 34 51 C30.0743722 46.31252039 26.71499246 41.27364396 23.30078125 36.2109375 C22.34730049 34.80057724 22.34730049 34.80057724 21.3745575 33.36172485 C20.03627585 31.38056991 18.69912551 29.39865035 17.36303711 27.41601562 C15.31322931 24.37608159 13.2573941 21.3402853 11.20117188 18.3046875 C9.90067309 16.37785288 8.6005305 14.4507778 7.30078125 12.5234375 C6.68415115 11.61403412 6.06752106 10.70463074 5.4322052 9.76766968 C4.86458969 8.9231424 4.29697418 8.07861511 3.7121582 7.20849609 C3.21126175 6.46634857 2.7103653 5.72420105 2.19429016 4.95956421 C1 3 1 3 0 0 Z " fill="#030201" transform="translate(366,123)"/>
<path d="M0 0 C1.625 0.828125 1.625 0.828125 3.875 2.328125 C3.875 1.338125 3.875 0.348125 3.875 -0.671875 C4.535 -0.671875 5.195 -0.671875 5.875 -0.671875 C5.875 4.278125 5.875 9.228125 5.875 14.328125 C5.215 14.328125 4.555 14.328125 3.875 14.328125 C3.69324219 13.71324219 3.51148438 13.09835938 3.32421875 12.46484375 C3.07285156 11.65660156 2.82148438 10.84835938 2.5625 10.015625 C2.31886719 9.21511719 2.07523437 8.41460937 1.82421875 7.58984375 C0.79655915 5.14122273 -0.01401833 3.92615785 -2.125 2.328125 C-5.12018895 1.40695271 -7.99903832 1.15320657 -11.125 1.328125 C-13.85561576 2.64192318 -13.85561576 2.64192318 -15.125 5.328125 C-15.87511367 8.78540858 -15.87511367 8.78540858 -15.125 12.328125 C-10.86705288 17.21890463 -5.66860525 20.43107438 -0.28125 23.94921875 C3.5719139 26.85339797 6.68772932 29.95358363 8.875 34.328125 C9.00476063 38.96243319 8.54082449 43.05207494 5.625 46.765625 C0.8090011 51.25326034 -3.13759295 51.70329213 -9.54296875 51.59765625 C-13.44389679 51.19044894 -16.55110298 49.91652367 -20.125 48.328125 C-20.125 49.318125 -20.125 50.308125 -20.125 51.328125 C-20.785 51.328125 -21.445 51.328125 -22.125 51.328125 C-22.125 45.388125 -22.125 39.448125 -22.125 33.328125 C-21.465 33.328125 -20.805 33.328125 -20.125 33.328125 C-19.95484375 33.99199219 -19.7846875 34.65585938 -19.609375 35.33984375 C-17.79022103 42.6894211 -17.79022103 42.6894211 -13.125 48.328125 C-8.5188342 49.18168828 -4.60768427 49.17537316 -0.5 46.828125 C1.04480616 44.01938653 1.39597228 41.61935704 1.50390625 38.42578125 C-0.3350484 32.29212506 -7.91459811 28.57068218 -13.04101562 25.25390625 C-17.56850135 22.17032138 -19.77708166 19.29817111 -22.125 14.328125 C-22.77750937 10.67407252 -22.90679841 8.52465794 -20.84375 5.3671875 C-15.32216983 -1.26412202 -8.47356074 -2.67914053 0 0 Z " fill="#E4CB69" transform="translate(279.125,215.671875)"/>
<path d="M0 0 C2.24947809 1.34643569 4.3815057 2.78390349 6.546875 4.26953125 C8.01432056 5.09710748 9.48923064 5.91184577 10.9765625 6.703125 C12.11351562 7.36441406 13.25046875 8.02570313 14.421875 8.70703125 C15.02644531 9.05701172 15.63101563 9.40699219 16.25390625 9.76757812 C17.68703425 10.59788244 19.11732031 11.43308967 20.546875 12.26953125 C20.546875 12.59953125 20.546875 12.92953125 20.546875 13.26953125 C14.91350417 13.68089851 9.27995394 14.08969318 3.64624023 14.49633789 C1.73896526 14.63434228 -0.16826331 14.77298996 -2.07543945 14.91235352 C-14.86220913 15.8461619 -27.64725935 16.64817498 -40.453125 17.26953125 C-35.33806918 13.34907445 -29.97977402 9.82707993 -24.53027344 6.39550781 C-23.23323258 5.56433756 -21.94928152 4.7123631 -20.6796875 3.83984375 C-13.73990735 -0.91145801 -8.15930459 -4.43821011 0 0 Z " fill="#040402" transform="translate(254.453125,58.73046875)"/>
<path d="M0 0 C0.66 0.33 1.32 0.66 2 1 C-0.96178134 10.11884545 -4.29457396 19.94439738 -11 27 C-19.43196684 30.85777985 -28.98993281 29.68049265 -38 29 C-41.00333809 28.94507353 -43.996018 28.96804274 -47 29 C-44.65160776 26.41796548 -42.18126094 24.79835576 -39.16015625 23.06640625 C-38.18836426 22.5051001 -37.21657227 21.94379395 -36.21533203 21.36547852 C-34.65468018 20.47300415 -34.65468018 20.47300415 -33.0625 19.5625 C-26.68428081 15.89026518 -20.31309282 12.21695816 -14.03515625 8.375 C-13.12048584 7.81611084 -12.20581543 7.25722168 -11.26342773 6.68139648 C-9.52857496 5.61691895 -7.7974842 4.54628136 -6.07055664 3.46899414 C-5.29703857 2.99582764 -4.52352051 2.52266113 -3.7265625 2.03515625 C-3.05189941 1.6162915 -2.37723633 1.19742676 -1.68212891 0.76586914 C-1.12702637 0.51313232 -0.57192383 0.26039551 0 0 Z " fill="#040402" transform="translate(358,344)"/>
<path d="M0 0 C5.28 0 10.56 0 16 0 C14.515 1.485 14.515 1.485 13 3 C12.56168529 5.01001818 12.56168529 5.01001818 12.64355469 7.24023438 C12.64055359 8.09121704 12.63755249 8.94219971 12.63446045 9.81896973 C12.64680725 10.73464722 12.65915405 11.65032471 12.671875 12.59375 C12.67374817 13.53682007 12.67562134 14.47989014 12.67755127 15.45153809 C12.68427374 17.44542984 12.69819208 19.43930836 12.71875 21.43310547 C12.74987854 24.48808018 12.75971854 27.54253873 12.765625 30.59765625 C12.7747962 32.53386047 12.78517234 34.47005943 12.796875 36.40625 C12.80112488 37.32192749 12.80537476 38.23760498 12.80975342 39.18103027 C12.81936096 40.03201294 12.82896851 40.88299561 12.83886719 41.75976562 C12.84910919 42.88203552 12.84910919 42.88203552 12.85955811 44.02697754 C12.93317053 46.21296456 12.93317053 46.21296456 14 49 C10.37 49 6.74 49 3 49 C3.66 48.01 4.32 47.02 5 46 C5.28828665 43.9617046 5.28828665 43.9617046 5.22705078 41.7121582 C5.22689972 40.85149246 5.22674866 39.99082672 5.22659302 39.1040802 C5.21627045 38.17899155 5.20594788 37.25390289 5.1953125 36.30078125 C5.1924826 35.35059616 5.18965271 34.40041107 5.18673706 33.4214325 C5.17553715 30.38499385 5.15043288 27.34884958 5.125 24.3125 C5.11496996 22.25456155 5.10584415 20.19661848 5.09765625 18.13867188 C5.07559842 13.0923344 5.04106982 8.04621712 5 3 C2.525 2.01 2.525 2.01 0 1 C0 0.67 0 0.34 0 0 Z " fill="#EED46E" transform="translate(294,216)"/>
<path d="M0 0 C0.66 0 1.32 0 2 0 C1.38455265 3.96543665 0.14187217 7.07177272 -1.66796875 10.64477539 C-2.5038855 12.30658592 -2.5038855 12.30658592 -3.35668945 14.00196838 C-3.96695291 15.20053443 -4.57722326 16.39909697 -5.1875 17.59765625 C-5.81208334 18.83613818 -6.43601559 20.07494867 -7.05932617 21.31407166 C-8.69790014 24.5684828 -10.34295539 27.81956705 -11.9901123 31.06964111 C-14.62752513 36.27417189 -17.25890448 41.48171604 -19.88296509 46.69299126 C-20.79953943 48.50947082 -21.7212277 50.32329005 -22.64331055 52.13697815 C-23.20058838 53.24169968 -23.75786621 54.3464212 -24.33203125 55.48461914 C-24.82421143 56.45548965 -25.3163916 57.42636017 -25.82348633 58.426651 C-26.83599372 60.64127456 -27.52134593 62.62248756 -28 65 C-29.32 64.67 -30.64 64.34 -32 64 C-31.86042877 63.39096832 -31.72085754 62.78193665 -31.57705688 62.15444946 C-30.27487737 56.13815085 -29.67216289 50.41934592 -29.5859375 44.2734375 C-29.56657135 43.39974518 -29.5472052 42.52605286 -29.5272522 41.62588501 C-29.46817736 38.8756847 -29.42136388 36.12544087 -29.375 33.375 C-29.33675362 31.49347282 -29.29769819 29.6119619 -29.2578125 27.73046875 C-29.16253667 23.15378024 -29.07824493 18.57701006 -29 14 C-28.67 14 -28.34 14 -28 14 C-27.67 27.2 -27.34 40.4 -27 54 C-18.09 36.18 -9.18 18.36 0 0 Z " fill="#BAA54E" transform="translate(126,130)"/>
<path d="M0 0 C4.63707195 -0.7503601 8.77082493 -1.06963763 13.18286133 0.77832031 C19.88305875 6.42368165 24.14152476 14.62677896 28.62036133 22.02832031 C29.91763825 24.06955939 31.22032911 26.10736838 32.52856445 28.14160156 C41.39365232 42.02534454 41.39365232 42.02534454 44.18286133 47.77832031 C43.19286133 48.10832031 42.20286133 48.43832031 41.18286133 48.77832031 C40.68141602 47.94816406 40.1799707 47.11800781 39.66333008 46.26269531 C35.36969869 39.24474796 30.92462706 32.34787885 26.28833008 25.55175781 C25.64594643 24.60991638 25.64594643 24.60991638 24.99058533 23.64904785 C22.81293546 20.46097028 20.627175 17.27869686 18.43359375 14.1015625 C17.61818868 12.91312488 16.80283798 11.72464996 15.98754883 10.53613281 C15.2552002 9.47539551 14.52285156 8.4146582 13.76831055 7.32177734 C12.18286133 4.77832031 12.18286133 4.77832031 12.18286133 2.77832031 C11.39524414 2.85050781 10.60762695 2.92269531 9.79614258 2.99707031 C-0.10284778 3.84053458 -9.99958067 4.62185579 -19.81713867 2.77832031 C-19.81713867 2.44832031 -19.81713867 2.11832031 -19.81713867 1.77832031 C-17.50501311 1.60405513 -15.19271927 1.43904141 -12.87963867 1.27832031 C-11.59186523 1.18550781 -10.3040918 1.09269531 -8.97729492 0.99707031 C-7.83006958 0.97628418 -7.83006958 0.97628418 -6.65966797 0.95507812 C-3.63421014 0.83285835 -3.63421014 0.83285835 0 0 Z " fill="#BBA64E" transform="translate(316.817138671875,68.2216796875)"/>
<path d="M0 0 C2.66793335 2.66793335 3.36340808 5.32631161 4.625 8.875 C5.07101563 10.10992187 5.51703125 11.34484375 5.9765625 12.6171875 C7 16 7 16 7 20 C2.38 20 -2.24 20 -7 20 C-5.69039355 12.73763698 -3.24043814 6.6169252 0 0 Z " fill="#080703" transform="translate(177,225)"/>
<path d="M0 0 C0 0.33 0 0.66 0 1 C-0.91495239 1.06731323 -0.91495239 1.06731323 -1.84838867 1.13598633 C-4.62929549 1.34815433 -7.40821132 1.58013024 -10.1875 1.8125 C-11.62706055 1.91788086 -11.62706055 1.91788086 -13.09570312 2.02539062 C-18.17410046 2.46469835 -21.7759075 2.91023294 -26 6 C-26.66 6 -27.32 6 -28 6 C-28 5.34 -28 4.68 -28 4 C-37.62599704 3.875927 -47.11982523 4.16188477 -56.72680664 4.8550415 C-69.16251774 5.74603987 -81.52861211 6.28928477 -94 6 C-94 5.67 -94 5.34 -94 5 C-92.76958984 4.91435791 -91.53917969 4.82871582 -90.27148438 4.74047852 C-85.67920603 4.42025261 -81.08713413 4.0971445 -76.49511719 3.77319336 C-74.51274996 3.63374252 -72.53032857 3.49505924 -70.54785156 3.35717773 C-67.68800287 3.15813801 -64.82836437 2.95628141 -61.96875 2.75390625 C-61.09134155 2.6934462 -60.21393311 2.63298615 -59.30993652 2.57069397 C-55.42274016 2.29318684 -51.55971573 1.97094752 -47.6940918 1.47265625 C-42.90099237 0.85938281 -38.13745474 0.63742793 -33.3125 0.4375 C-32.32241943 0.3950415 -31.33233887 0.35258301 -30.31225586 0.30883789 C-20.20694538 -0.08953915 -10.1111646 -0.09391175 0 0 Z " fill="#D4BC59" transform="translate(326,373)"/>
<path d="M0 0 C0 0.33 0 0.66 0 1 C-1.051875 1.103125 -2.10375 1.20625 -3.1875 1.3125 C-6.90291502 1.98249287 -8.89955421 2.96256419 -12 5 C-12.66 5 -13.32 5 -14 5 C-14 4.34 -14 3.68 -14 3 C-28.02030628 2.81541034 -28.02030628 2.81541034 -41.9921875 3.77734375 C-49.30211477 4.31846824 -56.67469031 4.06831895 -64 4 C-64 3.34 -64 2.68 -64 2 C-63.13128769 1.94695457 -63.13128769 1.94695457 -62.24502563 1.89283752 C-56.17704159 1.52193249 -50.10922825 1.14832247 -44.04150391 0.77319336 C-41.78178034 0.63383782 -39.52201518 0.49515498 -37.26220703 0.35717773 C-34.00021175 0.15788954 -30.73837737 -0.04387666 -27.4765625 -0.24609375 C-26.47823395 -0.3065538 -25.4799054 -0.36701385 -24.45132446 -0.42930603 C-18.9889283 -0.77054467 -13.57042848 -1.22669841 -8.13803101 -1.89930725 C-5.12089676 -2.04140226 -2.72984835 -1.22124795 0 0 Z " fill="#C0AA50" transform="translate(216,77)"/>
<path d="M0 0 C0.33 0 0.66 0 1 0 C0.9779248 0.98170166 0.95584961 1.96340332 0.93310547 2.97485352 C-0.18201433 28.56783808 -0.18201433 28.56783808 12 50 C12 50.66 12 51.32 12 52 C7.01272656 49.97525223 5.63247525 46.53370738 3 42 C2.67 45.3 2.34 48.6 2 52 C1.34 52 0.68 52 0 52 C0.03222656 50.99582031 0.06445312 49.99164063 0.09765625 48.95703125 C0.1160356 38.98194575 -1.80850017 33.35510977 -8.06640625 25.57421875 C-10 23 -10 23 -10 20 C-9.34 20 -8.68 20 -8 20 C-5.69 23.63 -3.38 27.26 -1 31 C-0.67 20.77 -0.34 10.54 0 0 Z " fill="#CCB555" transform="translate(401,143)"/>
<path d="M0 0 C0.66 0.66 1.32 1.32 2 2 C-0.31 8.27 -2.62 14.54 -5 21 C-0.38 21 4.24 21 9 21 C9.33 20.34 9.66 19.68 10 19 C10 20.32 10 21.64 10 23 C4.39 23 -1.22 23 -7 23 C-7.515625 24.711875 -8.03125 26.42375 -8.5625 28.1875 C-8.85253906 29.15042969 -9.14257812 30.11335938 -9.44140625 31.10546875 C-10.02461026 34.12752588 -9.81178385 36.05929955 -9 39 C-7.68 39.33 -6.36 39.66 -5 40 C-5 40.66 -5 41.32 -5 42 C-9.29 42 -13.58 42 -18 42 C-18 41.34 -18 40.68 -18 40 C-17.4112207 39.46922852 -16.82244141 38.93845703 -16.21582031 38.39160156 C-13.23674081 35.17619138 -12.06189709 31.80225045 -10.546875 27.734375 C-10.24179016 26.94097717 -9.93670532 26.14757935 -9.62237549 25.33013916 C-8.65484014 22.80714148 -7.70226596 20.27879517 -6.75 17.75 C-6.09473075 16.03347945 -5.43849132 14.31732893 -4.78125 12.6015625 C-3.17623059 8.40524459 -1.58460072 4.20406857 0 0 Z " fill="#C4AE5A" transform="translate(175,224)"/>
<path d="M0 0 C0.99 0.33 1.98 0.66 3 1 C1.33124968 6.73632924 -1.31001997 11.88055369 -4 17.1875 C-4.45117188 18.08919922 -4.90234375 18.99089844 -5.3671875 19.91992188 C-7.12329353 23.40875383 -8.83060251 26.74590376 -11 30 C-13.15136719 30.44824219 -13.15136719 30.44824219 -15.796875 30.546875 C-16.7559375 30.58683594 -17.715 30.62679688 -18.703125 30.66796875 C-20.21132813 30.70857422 -20.21132813 30.70857422 -21.75 30.75 C-22.74 30.79253906 -23.73 30.83507812 -24.75 30.87890625 C-29.64034419 31.05542937 -34.19166913 31.07942121 -39 30 C-39 29.67 -39 29.34 -39 29 C-29.97746114 28.16069406 -21.0598059 27.87775374 -12 28 C-11.77570313 27.22140625 -11.55140625 26.4428125 -11.3203125 25.640625 C-9.56387504 20.79743058 -7.22905879 16.32623754 -4.875 11.75 C-3.95207471 9.95499929 -3.0326181 8.15820947 -2.1171875 6.359375 C-1.71097168 5.57014648 -1.30475586 4.78091797 -0.88623047 3.96777344 C0.13688229 2.0557573 0.13688229 2.0557573 0 0 Z " fill="#B9A44D" transform="translate(359,343)"/>
<path d="M0 0 C4.9993241 -0.31245776 8.49073282 0.30057371 13.10546875 2.24609375 C15.048403 3.0192614 16.9635496 3.53491266 19 4 C19.33 3.01 19.66 2.02 20 1 C20.66 1 21.32 1 22 1 C22 6.61 22 12.22 22 18 C21.01 17.67 20.02 17.34 19 17 C18.3046875 15.2578125 18.3046875 15.2578125 17.875 13.125 C17.35581708 10.656604 16.80167444 8.40502333 16 6 C12.54958535 4.29624285 8.89822191 3.35856484 5.1875 2.375 C4.21167969 2.11460937 3.23585937 1.85421875 2.23046875 1.5859375 C1.49441406 1.39257812 0.75835937 1.19921875 0 1 C0 0.67 0 0.34 0 0 Z " fill="#C6B15C" transform="translate(225,214)"/>
<path d="M0 0 C0.66 0 1.32 0 2 0 C2.17015625 0.66386719 2.3403125 1.32773438 2.515625 2.01171875 C4.3728196 9.3107385 4.3728196 9.3107385 9 15 C11.35115947 15.47862889 13.57898484 15.68604769 15.9765625 15.76171875 C18 16 18 16 20 18 C13.19796625 18.37634203 8.24309927 17.77471079 2 15 C2 15.99 2 16.98 2 18 C1.34 18 0.68 18 0 18 C0 12.06 0 6.12 0 0 Z " fill="#CCB55E" transform="translate(257,249)"/>
<path d="M0 0 C5.23085363 0.53031696 8.86853255 2.26749859 13.3125 4.875 C14.26092773 5.40287109 14.26092773 5.40287109 15.22851562 5.94140625 C19.87323778 8.61971335 19.87323778 8.61971335 21 12 C21.01620515 14.44479312 20.97529774 16.85251722 20.87890625 19.29296875 C20.85529526 19.99899734 20.83168427 20.70502594 20.80735779 21.43244934 C20.73087055 23.68434507 20.64678253 25.93588387 20.5625 28.1875 C20.50926432 29.71547741 20.45652401 31.24347216 20.40429688 32.77148438 C20.27527576 36.51454835 20.13943788 40.25731019 20 44 C19.67 44 19.34 44 19 44 C19.06396973 43.0527002 19.12793945 42.10540039 19.19384766 41.12939453 C20.93877552 24.07535833 20.93877552 24.07535833 16.18603516 8.45556641 C11.45581593 4.53466531 5.93171953 2.42917008 0 1 C0 0.67 0 0.34 0 0 Z " fill="#AD9A48" transform="translate(381,131)"/>
<path d="M0 0 C0.33 0 0.66 0 1 0 C1 13.86 1 27.72 1 42 C1.66 42 2.32 42 3 42 C2.34 44.97 1.68 47.94 1 51 C-0.32 50.67 -1.64 50.34 -3 50 C-2.86042877 49.39096832 -2.72085754 48.78193665 -2.57705688 48.15444946 C-1.27487737 42.13815085 -0.67216289 36.41934592 -0.5859375 30.2734375 C-0.56657135 29.39974518 -0.5472052 28.52605286 -0.5272522 27.62588501 C-0.46817736 24.8756847 -0.42136388 22.12544087 -0.375 19.375 C-0.33675362 17.49347282 -0.29769819 15.6119619 -0.2578125 13.73046875 C-0.16253667 9.15378024 -0.07824493 4.57701006 0 0 Z " fill="#AF9B49" transform="translate(97,144)"/>
<path d="M0 0 C-0.68626465 0.05534912 -1.3725293 0.11069824 -2.07958984 0.16772461 C-5.17842435 0.42005303 -8.27669984 0.67869649 -11.375 0.9375 C-12.99535156 1.06801758 -12.99535156 1.06801758 -14.6484375 1.20117188 C-15.6796875 1.28818359 -16.7109375 1.37519531 -17.7734375 1.46484375 C-18.72653809 1.543396 -19.67963867 1.62194824 -20.66162109 1.70288086 C-23.01831795 1.87128174 -23.01831795 1.87128174 -25 3 C-26.54613014 2.91348369 -28.08909387 2.75997364 -29.625 2.5625 C-30.85089844 2.40974609 -30.85089844 2.40974609 -32.1015625 2.25390625 C-33.04128906 2.12822266 -33.04128906 2.12822266 -34 2 C-34 1.67 -34 1.34 -34 1 C-30.535 0.505 -30.535 0.505 -27 0 C-27 -0.33 -27 -0.66 -27 -1 C-4.80555556 -3.2037037 -4.80555556 -3.2037037 0 0 Z " fill="#BFA950" transform="translate(235,380)"/>
<path d="M0 0 C0.763125 0.309375 1.52625 0.61875 2.3125 0.9375 C4.18789677 1.67893593 6.08684652 2.36228217 8 3 C8 2.01 8 1.02 8 0 C8.66 0 9.32 0 10 0 C10 4.95 10 9.9 10 15 C9.34 15 8.68 15 8 15 C7.81824219 14.38511719 7.63648438 13.77023438 7.44921875 13.13671875 C7.07216797 11.92435547 7.07216797 11.92435547 6.6875 10.6875 C6.32205078 9.48673828 6.32205078 9.48673828 5.94921875 8.26171875 C4.41639463 4.60943411 2.26711639 3.17807759 -1 1 C-0.67 0.67 -0.34 0.34 0 0 Z " fill="#CFB85F" transform="translate(275,215)"/>
<path d="M0 0 C1.70884005 1.62339805 3.37446717 3.29319053 5 5 C5 5.66 5 6.32 5 7 C4.01 7.66 3.02 8.32 2 9 C0.80767387 11.05003955 0.80767387 11.05003955 0 13 C-3.875 7.25 -3.875 7.25 -5 5 C-3.35 3.35 -1.7 1.7 0 0 Z " fill="#C8B154" transform="translate(400,221)"/>
<path d="M0 0 C0.96099609 0.00451172 1.92199219 0.00902344 2.91210938 0.01367188 C5.25397422 0.02532294 7.59570181 0.04167975 9.9375 0.0625 C9.9375 0.3925 9.9375 0.7225 9.9375 1.0625 C9.02254761 1.12981323 9.02254761 1.12981323 8.08911133 1.19848633 C5.30820451 1.41065433 2.52928868 1.64263024 -0.25 1.875 C-1.68956055 1.98038086 -1.68956055 1.98038086 -3.15820312 2.08789062 C-8.23660046 2.52719835 -11.8384075 2.97273294 -16.0625 6.0625 C-16.7225 6.0625 -17.3825 6.0625 -18.0625 6.0625 C-18.0625 5.4025 -18.0625 4.7425 -18.0625 4.0625 C-17.4025 3.7325 -16.7425 3.4025 -16.0625 3.0625 C-17.3825 2.4025 -18.7025 1.7425 -20.0625 1.0625 C-13.33065587 0.18563415 -6.7839632 -0.06137197 0 0 Z " fill="#DAC25B" transform="translate(316.0625,372.9375)"/>
<path d="M0 0 C0.66 0 1.32 0 2 0 C0.55676531 4.73789165 -1.37226733 8.98858151 -3.625 13.375 C-3.94984375 14.01566406 -4.2746875 14.65632813 -4.609375 15.31640625 C-5.40257407 16.87947501 -6.20077031 18.44000622 -7 20 C-7.99 19.67 -8.98 19.34 -10 19 C-6.7 12.73 -3.4 6.46 0 0 Z " fill="#B9A54D" transform="translate(374,316)"/>
<path d="M0 0 C0.66 0 1.32 0 2 0 C3.44963959 1.90374355 4.81184323 3.87467159 6.125 5.875 C6.84945313 6.96554688 7.57390625 8.05609375 8.3203125 9.1796875 C10 12 10 12 10 14 C5.01272656 11.97525223 3.63247525 8.53370738 1 4 C0.67 7.3 0.34 10.6 0 14 C-0.66 13.67 -1.32 13.34 -2 13 C-1.85966889 11.02043559 -1.7125877 9.04134859 -1.5625 7.0625 C-1.48128906 5.96035156 -1.40007812 4.85820312 -1.31640625 3.72265625 C-1 1 -1 1 0 0 Z " fill="#B19D4A" transform="translate(403,181)"/>
<path d="M0 0 C-3.20036658 2.13357772 -4.06517867 2.25572341 -7.74609375 2.265625 C-9.12571289 2.26949219 -9.12571289 2.26949219 -10.53320312 2.2734375 C-11.49162109 2.26570313 -12.45003906 2.25796875 -13.4375 2.25 C-14.39205078 2.25773437 -15.34660156 2.26546875 -16.33007812 2.2734375 C-17.25111328 2.27085937 -18.17214844 2.26828125 -19.12109375 2.265625 C-19.9608374 2.26336914 -20.80058105 2.26111328 -21.66577148 2.25878906 C-24.18225253 1.9797942 -25.82396466 1.26243272 -28 0 C-18.7542361 -1.47932222 -9.2171404 -1.76498433 0 0 Z " fill="#B5A14C" transform="translate(302,375)"/>
<path d="M0 0 C0 0.33 0 0.66 0 1 C-1.051875 1.103125 -2.10375 1.20625 -3.1875 1.3125 C-6.90291502 1.98249287 -8.89955421 2.96256419 -12 5 C-12.66 5 -13.32 5 -14 5 C-14 4.34 -14 3.68 -14 3 C-15.32 2.34 -16.64 1.68 -18 1 C-13.47647199 -3.52352801 -5.42966592 -2.42906107 0 0 Z " fill="#A99646" transform="translate(216,77)"/>
<path d="M0 0 C-1.45738102 0.98058352 -2.91593675 1.95942132 -4.375 2.9375 C-5.59316406 3.75541016 -5.59316406 3.75541016 -6.8359375 4.58984375 C-9 6 -9 6 -11 7 C-8.69 7.33 -6.38 7.66 -4 8 C-4 8.33 -4 8.66 -4 9 C-7.96 9 -11.92 9 -16 9 C-14.65166602 4.95499806 -12.76735567 4.36378914 -9.125 2.25 C-8.05507812 1.61578125 -6.98515625 0.9815625 -5.8828125 0.328125 C-3 -1 -3 -1 0 0 Z " fill="#CCB555" transform="translate(227,68)"/>
<path d="M0 0 C-1.33333333 1.33333333 -2.66666667 2.66666667 -4 4 C-4.639375 4.7425 -5.27875 5.485 -5.9375 6.25 C-8 8 -8 8 -10.75 8.25 C-11.4925 8.1675 -12.235 8.085 -13 8 C-10.73461837 1.20385512 -6.90876146 -0.67732956 0 0 Z " fill="#C9B254" transform="translate(371,336)"/>
<path d="M0 0 C4.53847198 1.34927545 8.31932246 3.19159348 12.375 5.625 C13.43460937 6.25664063 14.49421875 6.88828125 15.5859375 7.5390625 C16.38257813 8.02117187 17.17921875 8.50328125 18 9 C15 10 15 10 12.44140625 8.92578125 C11.49136719 8.39339844 10.54132813 7.86101562 9.5625 7.3125 C8.61503906 6.79300781 7.66757812 6.27351563 6.69140625 5.73828125 C4.08023164 4.05181869 2.10003682 2.27876336 0 0 Z " fill="#C6B053" transform="translate(365,121)"/>
<path d="M0 0 C5.8022175 -0.36263859 9.63999211 0.74315457 15 3 C15 3.99 15 4.98 15 6 C13.515 5.319375 13.515 5.319375 12 4.625 C8.07889869 2.93307285 4.15907513 1.94856099 0 1 C0 0.67 0 0.34 0 0 Z " fill="#AF9C51" transform="translate(225,214)"/>
<path d="M0 0 C1.12588014 0.95729916 2.2506715 1.91587895 3.375 2.875 C4.00148437 3.40867187 4.62796875 3.94234375 5.2734375 4.4921875 C6.55836651 5.61432007 7.79371975 6.79371975 9 8 C8.01 8 7.02 8 6 8 C5.67 8.66 5.34 9.32 5 10 C2.5 7.6875 2.5 7.6875 0 5 C0 3.33333333 0 1.66666667 0 0 Z " fill="#D3BB58" transform="translate(143,340)"/>
<path d="M0 0 C0.66 0 1.32 0 2 0 C3.5078125 2.1875 3.5078125 2.1875 5.125 5 C5.66382813 5.928125 6.20265625 6.85625 6.7578125 7.8125 C7.37269531 8.8953125 7.37269531 8.8953125 8 10 C7.01 10.33 6.02 10.66 5 11 C4.15841464 9.73461631 3.32700252 8.46246221 2.5 7.1875 C1.80390625 6.12595703 1.80390625 6.12595703 1.09375 5.04296875 C0 3 0 3 0 0 Z " fill="#B5A04B" transform="translate(353,106)"/>
<path d="M0 0 C0.66 1.65 1.32 3.3 2 5 C1.34 5 0.68 5 0 5 C0 5.66 0 6.32 0 7 C-0.66 7 -1.32 7 -2 7 C-2 6.34 -2 5.68 -2 5 C-3.32 4.67 -4.64 4.34 -6 4 C-2.25 0 -2.25 0 0 0 Z " fill="#B19D4A" transform="translate(414,235)"/>
<path d="M0 0 C4.49652778 -0.36458333 4.49652778 -0.36458333 6.8125 1.3125 C8 3 8 3 8 6 C4.63408134 4.55746343 2.48952921 2.66735273 0 0 Z " fill="#CBB455" transform="translate(356,116)"/>
<path d="M0 0 C0.474375 0.639375 0.94875 1.27875 1.4375 1.9375 C5.05420035 4.84850272 8.47204894 4.80649782 13 5 C13 5.33 13 5.66 13 6 C11.40012764 6.27615058 9.794667 6.52007625 8.1875 6.75 C7.29417969 6.88921875 6.40085938 7.0284375 5.48046875 7.171875 C3 7 3 7 1.17578125 5.203125 C0 3 0 3 0 0 Z " fill="#B19D4A" transform="translate(167,376)"/>
<path d="M0 0 C2.97 0 5.94 0 9 0 C8.67 0.99 8.34 1.98 8 3 C4.9375 4.1875 4.9375 4.1875 2 5 C2 4.34 2 3.68 2 3 C2.66 2.67 3.32 2.34 4 2 C2.68 1.34 1.36 0.68 0 0 Z " fill="#D3BB58" transform="translate(296,374)"/>
<path d="M0 0 C-1.28813342 0.83878455 -2.58063256 1.67086783 -3.875 2.5 C-4.59429687 2.9640625 -5.31359375 3.428125 -6.0546875 3.90625 C-8 5 -8 5 -10 5 C-10 4.34 -10 3.68 -10 3 C-3.375 -1.125 -3.375 -1.125 0 0 Z " fill="#C8B154" transform="translate(325,364)"/>
<path d="M0 0 C-2.68841859 2.25245881 -4.64641875 3.88213958 -8 5 C-8.66 4.34 -9.32 3.68 -10 3 C-3.375 -1.125 -3.375 -1.125 0 0 Z " fill="#BBA64E" transform="translate(333,359)"/>
<path d="M0 0 C3.71888239 0.50712033 6.73454239 1.11608215 10 3 C9.67 3.99 9.34 4.98 9 6 C6.03 4.35 3.06 2.7 0 1 C0 0.67 0 0.34 0 0 Z " fill="#B9A44D" transform="translate(381,131)"/>
<path d="M0 0 C1.32 0 2.64 0 4 0 C3.67 1.32 3.34 2.64 3 4 C-0.3 3.67 -3.6 3.34 -7 3 C-7 2.67 -7 2.34 -7 2 C-3.535 1.505 -3.535 1.505 0 1 C0 0.67 0 0.34 0 0 Z " fill="#A08E43" transform="translate(208,379)"/>
<path d="M0 0 C1.32 1.32 2.64 2.64 4 4 C2.02 4.99 2.02 4.99 0 6 C-0.66 4.68 -1.32 3.36 -2 2 C-1.34 1.34 -0.68 0.68 0 0 Z " fill="#B6A24C" transform="translate(391,243)"/>
<path d="M0 0 C0.99 0.33 1.98 0.66 3 1 C2.67 1.66 2.34 2.32 2 3 C1.77141886 5.0374763 1.58975722 7.08040303 1.4375 9.125 C1.35371094 10.22070312 1.26992188 11.31640625 1.18359375 12.4453125 C1.12300781 13.28835937 1.06242187 14.13140625 1 15 C0.67 15 0.34 15 0 15 C0 10.05 0 5.1 0 0 Z " fill="#DBC25C" transform="translate(401,179)"/>
<path d="M0 0 C-5.75 4 -5.75 4 -8 4 C-8 3.34 -8 2.68 -8 2 C-3.61016949 -1.20338983 -3.61016949 -1.20338983 0 0 Z " fill="#C7B153" transform="translate(244,58)"/>
</svg>
